<svg width="20" height="21" viewBox="0 0 20 21" fill="none" xmlns="http://www.w3.org/2000/svg">
<path d="M8.03317 11.6666C7.1915 10.9166 6.1165 10.5249 4.99984 10.4999V12.9999L1.6665 9.66658L4.99984 6.33325V8.83325C6.3915 8.83325 7.74984 9.30825 8.85817 10.1583C8.51922 10.6233 8.24192 11.1303 8.03317 11.6666ZM14.9998 12.9999V10.4999C14.5832 10.4999 11.2498 10.6333 10.8748 13.9999C12.1748 14.4583 12.8582 15.8916 12.3998 17.1916C12.178 17.8164 11.7174 18.3278 11.1192 18.6137C10.5209 18.8996 9.83368 18.9366 9.20817 18.7166C7.9165 18.2499 7.22484 16.8249 7.68317 15.5249C7.9165 14.8083 8.49984 14.2499 9.20817 13.9999C9.32513 12.5597 9.99188 11.2196 11.0702 10.2577C12.1485 9.29576 13.5556 8.7857 14.9998 8.83325V6.33325L18.3332 9.66658L14.9998 12.9999ZM10.8332 16.3333C10.8332 16.1122 10.7454 15.9003 10.5891 15.744C10.4328 15.5877 10.2209 15.4999 9.99984 15.4999C9.77882 15.4999 9.56686 15.5877 9.41058 15.744C9.2543 15.9003 9.1665 16.1122 9.1665 16.3333C9.1665 16.5543 9.2543 16.7662 9.41058 16.9225C9.56686 17.0788 9.77882 17.1666 9.99984 17.1666C10.2209 17.1666 10.4328 17.0788 10.5891 16.9225C10.7454 16.7662 10.8332 16.5543 10.8332 16.3333ZM9.1665 9.76659C9.64984 9.21659 10.2082 8.74159 10.8332 8.35825V4.66659H13.3332L9.99984 1.33325L6.6665 4.66659H9.1665V9.76659Z" fill="#545961"/>
</svg>
